<?xml version="1.0" encoding="UTF-8" standalone="no"?>
<!-- Created with Inkscape (http://www.inkscape.org/) -->

<svg
   xmlns:osb="http://www.openswatchbook.org/uri/2009/osb"
   xmlns:dc="http://purl.org/dc/elements/1.1/"
   xmlns:cc="http://creativecommons.org/ns#"
   xmlns:rdf="http://www.w3.org/1999/02/22-rdf-syntax-ns#"
   xmlns:svg="http://www.w3.org/2000/svg"
   xmlns="http://www.w3.org/2000/svg"
   xmlns:xlink="http://www.w3.org/1999/xlink"
   xmlns:sodipodi="http://sodipodi.sourceforge.net/DTD/sodipodi-0.dtd"
   xmlns:inkscape="http://www.inkscape.org/namespaces/inkscape"
   width="210mm"
   height="297mm"
   viewBox="0 0 744.09448819 1052.3622047"
   id="svg2"
   version="1.1"
   inkscape:version="0.91 r13725"
   sodipodi:docname="Gun01.svg"
   inkscape:export-filename="A:\OneDrive\DSapsan\Unity\path5727-4.png"
   inkscape:export-xdpi="199.80261"
   inkscape:export-ydpi="199.80261">
  <defs
     id="defs4">
    <marker
       inkscape:stockid="CurveOut"
       orient="auto"
       refY="0.0"
       refX="0.0"
       id="CurveOut"
       style="overflow:visible"
       inkscape:isstock="true">
      <path
         id="path6607"
         d="M -5.4129913,-5.0456926 C -2.6529913,-5.0456926 -0.41299131,-2.8056926 -0.41299131,-0.045692580 C -0.41299131,2.7143074 -2.6529913,4.9543074 -5.4129913,4.9543074"
         style="fill:none;fill-rule:evenodd;stroke:#ff0000;stroke-width:1pt;stroke-opacity:1"
         transform="scale(0.6)" />
    </marker>
    <marker
       inkscape:stockid="Scissors"
       orient="auto"
       refY="0.0"
       refX="0.0"
       id="Scissors"
       style="overflow:visible"
       inkscape:isstock="true">
      <path
         id="schere"
         d="M 9.0898857,-3.6061018 C 8.1198849,-4.7769976 6.3697607,-4.7358294 5.0623558,-4.2327734 L -3.1500488,-1.1548705 C -5.5383421,-2.4615840 -7.8983361,-2.0874077 -7.8983361,-2.7236578 C -7.8983361,-3.2209742 -7.4416699,-3.1119800 -7.5100293,-4.4068519 C -7.5756648,-5.6501286 -8.8736064,-6.5699315 -10.100428,-6.4884954 C -11.327699,-6.4958500 -12.599867,-5.5553341 -12.610769,-4.2584343 C -12.702194,-2.9520479 -11.603560,-1.7387447 -10.304005,-1.6532027 C -8.7816644,-1.4265411 -6.0857470,-2.3487593 -4.8210600,-0.082342643 C -5.7633447,1.6559151 -7.4350844,1.6607341 -8.9465707,1.5737277 C -10.201445,1.5014928 -11.708664,1.8611256 -12.307219,3.0945882 C -12.885586,4.2766744 -12.318421,5.9591904 -10.990470,6.3210002 C -9.6502788,6.8128279 -7.8098011,6.1912892 -7.4910978,4.6502760 C -7.2454393,3.4624530 -8.0864637,2.9043186 -7.7636052,2.4731223 C -7.5199917,2.1477623 -5.9728246,2.3362771 -3.2164999,1.0982979 L 5.6763468,4.2330688 C 6.8000164,4.5467672 8.1730685,4.5362646 9.1684433,3.4313614 L -0.051640930,-0.053722219 L 9.0898857,-3.6061018 z M -9.2179159,-5.5066058 C -7.9233569,-4.7838060 -8.0290767,-2.8230356 -9.3743431,-2.4433169 C -10.590861,-2.0196559 -12.145370,-3.2022863 -11.757521,-4.5207817 C -11.530373,-5.6026336 -10.104134,-6.0014137 -9.2179159,-5.5066058 z M -9.1616516,2.5107591 C -7.8108215,3.0096239 -8.0402087,5.2951947 -9.4138723,5.6023681 C -10.324932,5.9187072 -11.627422,5.4635705 -11.719569,4.3902287 C -11.897178,3.0851737 -10.363484,1.9060805 -9.1616516,2.5107591 z "
         style="fill:#ff0000;stroke:#ff0000;stroke-opacity:1;fill-opacity:1" />
    </marker>
    <marker
       inkscape:stockid="Arrow1Sstart"
       orient="auto"
       refY="0.0"
       refX="0.0"
       id="Arrow1Sstart"
       style="overflow:visible"
       inkscape:isstock="true">
      <path
         id="path6432"
         d="M 0.0,0.0 L 5.0,-5.0 L -12.5,0.0 L 5.0,5.0 L 0.0,0.0 z "
         style="fill-rule:evenodd;stroke:#ff0000;stroke-width:1pt;stroke-opacity:1;fill:#ff0000;fill-opacity:1"
         transform="scale(0.2) translate(6,0)" />
    </marker>
    <marker
       inkscape:stockid="Arrow2Lstart"
       orient="auto"
       refY="0.0"
       refX="0.0"
       id="Arrow2Lstart"
       style="overflow:visible"
       inkscape:isstock="true">
      <path
         id="path6438"
         style="fill-rule:evenodd;stroke-width:0.625;stroke-linejoin:round;stroke:#ff0000;stroke-opacity:1;fill:#ff0000;fill-opacity:1"
         d="M 8.7185878,4.0337352 L -2.2072895,0.016013256 L 8.7185884,-4.0017078 C 6.9730900,-1.6296469 6.9831476,1.6157441 8.7185878,4.0337352 z "
         transform="scale(1.1) translate(1,0)" />
    </marker>
    <marker
       inkscape:stockid="Club"
       orient="auto"
       refY="0.0"
       refX="0.0"
       id="Club"
       style="overflow:visible"
       inkscape:isstock="true">
      <path
         id="path6649"
         d="M -1.5971367,-7.0977635 C -3.4863874,-7.0977635 -5.0235187,-5.5606321 -5.0235187,-3.6713813 C -5.0235187,-3.0147015 -4.7851656,-2.4444556 -4.4641095,-1.9232271 C -4.5028609,-1.8911157 -4.5437814,-1.8647646 -4.5806531,-1.8299921 C -5.2030765,-2.6849849 -6.1700514,-3.2751330 -7.3077730,-3.2751330 C -9.1970245,-3.2751331 -10.734155,-1.7380016 -10.734155,0.15124914 C -10.734155,2.0404999 -9.1970245,3.5776313 -7.3077730,3.5776313 C -6.3143268,3.5776313 -5.4391540,3.1355702 -4.8137404,2.4588126 C -4.9384274,2.8137041 -5.0235187,3.1803000 -5.0235187,3.5776313 C -5.0235187,5.4668819 -3.4863874,7.0040135 -1.5971367,7.0040135 C 0.29211394,7.0040135 1.8292454,5.4668819 1.8292454,3.5776313 C 1.8292454,2.7842354 1.5136868,2.0838028 1.0600576,1.5031550 C 2.4152718,1.7663868 3.7718375,2.2973711 4.7661444,3.8340272 C 4.0279463,3.0958289 3.5540908,1.7534117 3.5540908,-0.058529361 L 2.9247554,-0.10514681 L 3.5074733,-0.12845553 C 3.5074733,-1.9403966 3.9580199,-3.2828138 4.6962183,-4.0210121 C 3.7371277,-2.5387813 2.4390549,-1.9946496 1.1299838,-1.7134486 C 1.5341802,-2.2753578 1.8292454,-2.9268556 1.8292454,-3.6713813 C 1.8292454,-5.5606319 0.29211394,-7.0977635 -1.5971367,-7.0977635 z "
         style="fill-rule:evenodd;stroke:#ff0000;stroke-width:0.74587913pt;stroke-opacity:1;fill:#ff0000;fill-opacity:1"
         transform="scale(0.6)" />
    </marker>
    <linearGradient
       inkscape:collect="always"
       id="linearGradient8305">
      <stop
         id="stop8309"
         offset="0"
         style="stop-color:#ffffff;stop-opacity:0;" />
      <stop
         id="stop8307"
         offset="1"
         style="stop-color:#ffffff;stop-opacity:1;" />
    </linearGradient>
    <linearGradient
       inkscape:collect="always"
       id="linearGradient8167">
      <stop
         style="stop-color:#b3b3b3;stop-opacity:1;"
         offset="0"
         id="stop8169" />
      <stop
         style="stop-color:#b3b3b3;stop-opacity:0;"
         offset="1"
         id="stop8171" />
    </linearGradient>
    <linearGradient
       id="linearGradient8153"
       osb:paint="solid">
      <stop
         style="stop-color:#2b0000;stop-opacity:1;"
         offset="0"
         id="stop8155" />
    </linearGradient>
    <linearGradient
       id="linearGradient8139"
       osb:paint="solid">
      <stop
         style="stop-color:#f2f2f2;stop-opacity:1;"
         offset="0"
         id="stop8141" />
    </linearGradient>
    <linearGradient
       id="linearGradient8091"
       osb:paint="solid">
      <stop
         style="stop-color:#008000;stop-opacity:1;"
         offset="0"
         id="stop8093" />
    </linearGradient>
    <linearGradient
       id="linearGradient7496"
       osb:paint="solid">
      <stop
         style="stop-color:#000000;stop-opacity:1;"
         offset="0"
         id="stop7498" />
    </linearGradient>
    <marker
       inkscape:isstock="true"
       style="overflow:visible"
       id="marker7130"
       refX="0.0"
       refY="0.0"
       orient="auto"
       inkscape:stockid="DotL">
      <path
         transform="scale(0.8) translate(7.4, 1)"
         style="fill-rule:evenodd;stroke:#ff0000;stroke-width:1pt;stroke-opacity:1;fill:#ff0000;fill-opacity:1"
         d="M -2.5,-1.0 C -2.5,1.7600000 -4.7400000,4.0 -7.5,4.0 C -10.260000,4.0 -12.5,1.7600000 -12.5,-1.0 C -12.5,-3.7600000 -10.260000,-6.0 -7.5,-6.0 C -4.7400000,-6.0 -2.5,-3.7600000 -2.5,-1.0 z "
         id="path7132" />
    </marker>
    <marker
       inkscape:isstock="true"
       style="overflow:visible"
       id="marker7060"
       refX="0.0"
       refY="0.0"
       orient="auto"
       inkscape:stockid="DotL">
      <path
         transform="scale(0.8) translate(7.4, 1)"
         style="fill-rule:evenodd;stroke:#000000;stroke-width:1pt;stroke-opacity:1;fill:#24221c;fill-opacity:1"
         d="M -2.5,-1.0 C -2.5,1.7600000 -4.7400000,4.0 -7.5,4.0 C -10.260000,4.0 -12.5,1.7600000 -12.5,-1.0 C -12.5,-3.7600000 -10.260000,-6.0 -7.5,-6.0 C -4.7400000,-6.0 -2.5,-3.7600000 -2.5,-1.0 z "
         id="path7062" />
    </marker>
    <marker
       inkscape:isstock="true"
       style="overflow:visible"
       id="marker6996"
       refX="0.0"
       refY="0.0"
       orient="auto"
       inkscape:stockid="DotL">
      <path
         transform="scale(0.8) translate(7.4, 1)"
         style="fill-rule:evenodd;stroke:#000000;stroke-width:1pt;stroke-opacity:1;fill:#24221c;fill-opacity:1"
         d="M -2.5,-1.0 C -2.5,1.7600000 -4.7400000,4.0 -7.5,4.0 C -10.260000,4.0 -12.5,1.7600000 -12.5,-1.0 C -12.5,-3.7600000 -10.260000,-6.0 -7.5,-6.0 C -4.7400000,-6.0 -2.5,-3.7600000 -2.5,-1.0 z "
         id="path6998" />
    </marker>
    <marker
       inkscape:isstock="true"
       style="overflow:visible"
       id="marker6938"
       refX="0.0"
       refY="0.0"
       orient="auto"
       inkscape:stockid="DotL">
      <path
         transform="scale(0.8) translate(7.4, 1)"
         style="fill-rule:evenodd;stroke:#000000;stroke-width:1pt;stroke-opacity:1;fill:#24221c;fill-opacity:1"
         d="M -2.5,-1.0 C -2.5,1.7600000 -4.7400000,4.0 -7.5,4.0 C -10.260000,4.0 -12.5,1.7600000 -12.5,-1.0 C -12.5,-3.7600000 -10.260000,-6.0 -7.5,-6.0 C -4.7400000,-6.0 -2.5,-3.7600000 -2.5,-1.0 z "
         id="path6940" />
    </marker>
    <marker
       inkscape:isstock="true"
       style="overflow:visible"
       id="marker6928"
       refX="0.0"
       refY="0.0"
       orient="auto"
       inkscape:stockid="DotL">
      <path
         transform="scale(0.8) translate(7.4, 1)"
         style="fill-rule:evenodd;stroke:#000000;stroke-width:1pt;stroke-opacity:1;fill:#24221c;fill-opacity:1"
         d="M -2.5,-1.0 C -2.5,1.7600000 -4.7400000,4.0 -7.5,4.0 C -10.260000,4.0 -12.5,1.7600000 -12.5,-1.0 C -12.5,-3.7600000 -10.260000,-6.0 -7.5,-6.0 C -4.7400000,-6.0 -2.5,-3.7600000 -2.5,-1.0 z "
         id="path6930" />
    </marker>
    <marker
       inkscape:isstock="true"
       style="overflow:visible"
       id="marker6820"
       refX="0.0"
       refY="0.0"
       orient="auto"
       inkscape:stockid="Arrow1Lstart">
      <path
         transform="scale(0.8) translate(12.5,0)"
         style="fill-rule:evenodd;stroke:#000000;stroke-width:1pt;stroke-opacity:1;fill:#24221c;fill-opacity:1"
         d="M 0.0,0.0 L 5.0,-5.0 L -12.5,0.0 L 5.0,5.0 L 0.0,0.0 z "
         id="path6822" />
    </marker>
    <marker
       inkscape:isstock="true"
       style="overflow:visible"
       id="marker6780"
       refX="0.0"
       refY="0.0"
       orient="auto"
       inkscape:stockid="Arrow1Lstart">
      <path
         transform="scale(0.8) translate(12.5,0)"
         style="fill-rule:evenodd;stroke:#000000;stroke-width:1pt;stroke-opacity:1;fill:#24221c;fill-opacity:1"
         d="M 0.0,0.0 L 5.0,-5.0 L -12.5,0.0 L 5.0,5.0 L 0.0,0.0 z "
         id="path6782" />
    </marker>
    <marker
       inkscape:isstock="true"
       style="overflow:visible"
       id="marker6746"
       refX="0.0"
       refY="0.0"
       orient="auto"
       inkscape:stockid="Arrow1Lstart">
      <path
         transform="scale(0.8) translate(12.5,0)"
         style="fill-rule:evenodd;stroke:#000000;stroke-width:1pt;stroke-opacity:1;fill:#24221c;fill-opacity:1"
         d="M 0.0,0.0 L 5.0,-5.0 L -12.5,0.0 L 5.0,5.0 L 0.0,0.0 z "
         id="path6748" />
    </marker>
    <marker
       inkscape:isstock="true"
       style="overflow:visible"
       id="marker6718"
       refX="0.0"
       refY="0.0"
       orient="auto"
       inkscape:stockid="Arrow1Lstart">
      <path
         transform="scale(0.8) translate(12.5,0)"
         style="fill-rule:evenodd;stroke:#000000;stroke-width:1pt;stroke-opacity:1;fill:#24221c;fill-opacity:1"
         d="M 0.0,0.0 L 5.0,-5.0 L -12.5,0.0 L 5.0,5.0 L 0.0,0.0 z "
         id="path6720" />
    </marker>
    <marker
       inkscape:isstock="true"
       style="overflow:visible"
       id="marker6696"
       refX="0.0"
       refY="0.0"
       orient="auto"
       inkscape:stockid="Arrow1Lstart">
      <path
         transform="scale(0.8) translate(12.5,0)"
         style="fill-rule:evenodd;stroke:#000000;stroke-width:1pt;stroke-opacity:1;fill:#24221c;fill-opacity:1"
         d="M 0.0,0.0 L 5.0,-5.0 L -12.5,0.0 L 5.0,5.0 L 0.0,0.0 z "
         id="path6698" />
    </marker>
    <linearGradient
       id="linearGradient5590"
       osb:paint="solid">
      <stop
         style="stop-color:#000000;stop-opacity:1;"
         offset="0"
         id="stop5592" />
    </linearGradient>
    <linearGradient
       inkscape:collect="always"
       xlink:href="#linearGradient8167"
       id="linearGradient8173"
       x1="221.02742"
       y1="348.96005"
       x2="267.45929"
       y2="326.46005"
       gradientUnits="userSpaceOnUse"
       gradientTransform="translate(0,1.9147658)" />
    <linearGradient
       inkscape:collect="always"
       xlink:href="#linearGradient8167"
       id="linearGradient8175"
       x1="137.15631"
       y1="329.99567"
       x2="228.31587"
       y2="321.42426"
       gradientUnits="userSpaceOnUse"
       gradientTransform="translate(0,1.9147658)" />
    <linearGradient
       inkscape:collect="always"
       xlink:href="#linearGradient8167"
       id="linearGradient8177"
       x1="197.36807"
       y1="242.76317"
       x2="252.40109"
       y2="271.33459"
       gradientUnits="userSpaceOnUse"
       gradientTransform="translate(0,1.9147658)" />
    <linearGradient
       inkscape:collect="always"
       xlink:href="#linearGradient8167"
       id="linearGradient8173-9"
       x1="221.02742"
       y1="348.96005"
       x2="267.45929"
       y2="326.46005"
       gradientUnits="userSpaceOnUse"
       gradientTransform="matrix(-1,0,0,1,499.3485,1.9147648)" />
    <linearGradient
       inkscape:collect="always"
       xlink:href="#linearGradient8167"
       id="linearGradient8175-3"
       x1="137.15631"
       y1="329.99567"
       x2="228.31587"
       y2="321.42426"
       gradientUnits="userSpaceOnUse"
       gradientTransform="matrix(-1,0,0,1,499.3485,1.9147648)" />
    <linearGradient
       inkscape:collect="always"
       xlink:href="#linearGradient8167"
       id="linearGradient8177-3"
       x1="197.36807"
       y1="242.76317"
       x2="252.40109"
       y2="271.33459"
       gradientUnits="userSpaceOnUse"
       gradientTransform="matrix(-1,0,0,1,499.3485,1.9147648)" />
    <radialGradient
       inkscape:collect="always"
       xlink:href="#linearGradient8305"
       id="radialGradient8311"
       cx="250.71469"
       cy="294.50607"
       fx="250.71469"
       fy="294.50607"
       r="38.606721"
       gradientTransform="matrix(1.2042726,-1.2318934e-7,2.0262439e-7,1.9808117,-52.428952,-298.10548)"
       gradientUnits="userSpaceOnUse" />
  </defs>
  <sodipodi:namedview
     id="base"
     pagecolor="#ffffff"
     bordercolor="#666666"
     borderopacity="1.0"
     inkscape:pageopacity="0.0"
     inkscape:pageshadow="2"
     inkscape:zoom="3.959798"
     inkscape:cx="227.86484"
     inkscape:cy="799.75731"
     inkscape:document-units="px"
     inkscape:current-layer="layer2"
     showgrid="false"
     inkscape:snap-global="false"
     inkscape:snap-bbox="false"
     inkscape:bbox-paths="true"
     inkscape:bbox-nodes="false"
     inkscape:snap-bbox-midpoints="false"
     inkscape:snap-bbox-edge-midpoints="false"
     inkscape:object-paths="false"
     inkscape:window-width="1440"
     inkscape:window-height="757"
     inkscape:window-x="-8"
     inkscape:window-y="-8"
     inkscape:window-maximized="1" />
  <metadata
     id="metadata7">
    <rdf:RDF>
      <cc:Work
         rdf:about="">
        <dc:format>image/svg+xml</dc:format>
        <dc:type
           rdf:resource="http://purl.org/dc/dcmitype/StillImage" />
        <dc:title></dc:title>
      </cc:Work>
    </rdf:RDF>
  </metadata>
  <g
     inkscape:groupmode="layer"
     id="layer2"
     inkscape:label="Layer 2">
    <rect
       style="opacity:1;fill:#000000;fill-opacity:1;fill-rule:nonzero;stroke:#cccccc;stroke-width:1.39999998;stroke-linejoin:round;stroke-miterlimit:4;stroke-dasharray:none;stroke-dashoffset:0;stroke-opacity:0"
       id="rect8065"
       width="305.57114"
       height="291.42902"
       x="65.154839"
       y="99.788345" />
    <path
       style="opacity:1;fill:url(#linearGradient8177-3);fill-opacity:1;fill-rule:evenodd;stroke:#f2f2f2;stroke-width:1.5;stroke-linecap:butt;stroke-linejoin:round;stroke-miterlimit:4;stroke-dasharray:none;stroke-dashoffset:0;stroke-opacity:1"
       d="m 260.44742,240.76735 0,-68.69038 20.20305,0 32.82996,113.13709 -26.26396,27.77919 -26.26397,-26.26396 z"
       id="path5604-7"
       inkscape:connector-curvature="0"
       inkscape:export-xdpi="199.80261"
       inkscape:export-ydpi="199.80261" />
    <path
       style="opacity:1;fill:url(#linearGradient8175-3);fill-opacity:1;fill-rule:evenodd;stroke:#f2f2f2;stroke-width:1.5;stroke-linecap:butt;stroke-linejoin:round;stroke-miterlimit:4;stroke-dasharray:none;stroke-dashoffset:0;stroke-opacity:1"
       d="m 316.55421,287.76745 46.4237,16.63951 0,28.78934 -72.73099,0 0,-17.42513 z"
       id="path5606-1"
       inkscape:connector-curvature="0"
       sodipodi:nodetypes="cccccc"
       inkscape:export-xdpi="199.80261"
       inkscape:export-ydpi="199.80261" />
    <path
       style="opacity:1;fill:url(#linearGradient8173-9);fill-opacity:1;fill-rule:evenodd;stroke:#f2f2f2;stroke-width:1.5;stroke-linecap:butt;stroke-linejoin:round;stroke-miterlimit:4;stroke-dasharray:none;stroke-dashoffset:0;stroke-opacity:1"
       d="m 258.30085,288.37078 28.66308,28.66308 0,16.41498 -19.68732,47.7348 -16.1731,0.17857 0,-93.11769 z"
       id="path5727-2"
       inkscape:connector-curvature="0"
       sodipodi:nodetypes="ccccccc"
       inkscape:export-xdpi="199.80261"
       inkscape:export-ydpi="199.80261" />
    <path
       style="fill:none;fill-rule:evenodd;stroke:#f9f9f9;stroke-width:3.77507687;stroke-linecap:round;stroke-linejoin:miter;stroke-miterlimit:4;stroke-dasharray:none;stroke-opacity:1"
       d="m 257.88779,286.65436 0.22441,-96.44515"
       id="path8317-9"
       inkscape:connector-curvature="0"
       inkscape:export-filename="A:\OneDrive\DSapsan\Unity\path8303.png"
       inkscape:export-xdpi="199.80261"
       inkscape:export-ydpi="199.80261" />
  </g>
  <g
     inkscape:label="Layer 1"
     inkscape:groupmode="layer"
     id="layer1">
    <path
       style="opacity:1;fill:url(#linearGradient8177);fill-opacity:1;fill-rule:evenodd;stroke:#f2f2f2;stroke-width:1.5;stroke-linecap:butt;stroke-linejoin:round;stroke-miterlimit:4;stroke-dasharray:none;stroke-dashoffset:0;stroke-opacity:1"
       d="m 238.90108,240.76735 0,-68.69038 -20.20305,0 -32.82996,113.13709 26.26396,27.77919 26.26397,-26.26396 z"
       id="path5604"
       inkscape:connector-curvature="0"
       inkscape:export-xdpi="199.80261"
       inkscape:export-ydpi="199.80261" />
    <path
       style="opacity:1;fill:url(#linearGradient8175);fill-opacity:1;fill-rule:evenodd;stroke:#f2f2f2;stroke-width:1.5;stroke-linecap:butt;stroke-linejoin:round;stroke-miterlimit:4;stroke-dasharray:none;stroke-dashoffset:0;stroke-opacity:1"
       d="m 182.79429,287.76745 -46.4237,16.63951 0,28.78934 72.73099,0 0,-17.42513 z"
       id="path5606"
       inkscape:connector-curvature="0"
       sodipodi:nodetypes="cccccc"
       inkscape:export-xdpi="199.80261"
       inkscape:export-ydpi="199.80261" />
    <path
       style="opacity:1;fill:url(#linearGradient8173);fill-opacity:1;fill-rule:evenodd;stroke:#f2f2f2;stroke-width:1.5;stroke-linecap:butt;stroke-linejoin:round;stroke-miterlimit:4;stroke-dasharray:none;stroke-dashoffset:0;stroke-opacity:1"
       d="m 241.04765,288.37078 -28.66308,28.66308 0,16.41498 19.68732,47.7348 16.1731,0.17857 0,-93.11769 z"
       id="path5727"
       inkscape:connector-curvature="0"
       sodipodi:nodetypes="ccccccc"
       inkscape:export-xdpi="199.80261"
       inkscape:export-ydpi="199.80261" />
  </g>
  <g
     inkscape:groupmode="layer"
     id="layer3"
     inkscape:label="Layer 3">
    <path
       style="opacity:1;fill:url(#radialGradient8311);fill-opacity:1;fill-rule:nonzero;stroke:#f9f9f9;stroke-width:2.2649796;stroke-linejoin:round;stroke-miterlimit:4;stroke-dasharray:none;stroke-dashoffset:0;stroke-opacity:1"
       id="path8303"
       sodipodi:type="arc"
       sodipodi:cx="249.5"
       sodipodi:cy="285.25568"
       sodipodi:rx="39.367508"
       sodipodi:ry="39.3675"
       sodipodi:start="0"
       sodipodi:end="6.2736446"
       d="m 288.86751,285.25568 a 39.367508,39.3675 0 0 1 -39.27361,39.36738 39.367508,39.3675 0 0 1 -39.46096,-39.17959 39.367508,39.3675 0 0 1 39.08537,-39.55429 39.367508,39.3675 0 0 1 39.64741,38.99091"
       sodipodi:open="true"
       inkscape:export-filename="A:\OneDrive\DSapsan\Unity\path8303.png"
       inkscape:export-xdpi="199.80261"
       inkscape:export-ydpi="199.80261" />
    <path
       style="fill:none;fill-rule:evenodd;stroke:#f9f9f9;stroke-width:3.77507687;stroke-linecap:round;stroke-linejoin:miter;stroke-miterlimit:4;stroke-dasharray:none;stroke-opacity:1"
       d="m 240.88779,286.78062 0.22441,-96.44515"
       id="path8317"
       inkscape:connector-curvature="0"
       inkscape:export-filename="A:\OneDrive\DSapsan\Unity\path8303.png"
       inkscape:export-xdpi="199.80261"
       inkscape:export-ydpi="199.80261" />
  </g>
</svg>
